<svg width="319" height="54" viewBox="0 0 319 54" fill="none" xmlns="http://www.w3.org/2000/svg">
<path fill-rule="evenodd" clip-rule="evenodd" d="M75.141 31.1039H79.9856L86.4919 42.2404H93.3679L86.2154 30.1417C89.9069 28.4456 92.4451 24.8253 92.4451 20.7925C92.4404 17.9661 91.3046 15.2574 89.288 13.2631C87.2713 11.2689 84.5391 10.1526 81.6933 10.1601H68.7729V42.2404H75.141V31.1039ZM81.6928 25.5584H75.141L75.1414 16.0723H81.6932C84.0932 16.0723 86.0749 18.1347 86.0749 20.7925C86.0749 23.4503 84.0928 25.5584 81.6928 25.5584Z" fill="black"/>
<path fill-rule="evenodd" clip-rule="evenodd" d="M104.157 18.8062C99.5602 20.7154 96.5675 25.2079 96.5769 30.1858C96.542 33.4515 97.8239 36.5937 100.133 38.9031C102.442 41.2124 105.585 42.4944 108.85 42.4597C113.828 42.4692 118.321 39.4767 120.23 34.8795C122.14 30.2824 121.089 24.9875 117.569 21.4676C114.049 17.9476 108.755 16.8969 104.157 18.8062ZM108.85 23.7707C112.429 23.7707 115.173 26.4202 115.173 30.1858C115.173 33.9519 112.43 36.6018 108.85 36.6018C105.317 36.6018 102.574 33.9515 102.574 30.1858C102.574 26.4202 105.317 23.7707 108.85 23.7707Z" fill="black"/>
<path d="M124.379 30.1618C124.379 23.2216 129.512 17.8654 136.478 17.8654C140.969 17.8654 144.864 20.2871 146.744 23.874L141.656 26.9017C140.655 24.9225 138.62 23.7073 136.432 23.7808C132.903 23.7808 130.291 26.4362 130.291 30.1618C130.291 33.8419 132.903 36.4968 136.432 36.4968C138.815 36.4968 140.786 35.3321 141.702 33.4227L146.835 36.404C144.728 40.1911 140.759 42.5117 136.478 42.4595C129.512 42.459 124.379 37.1023 124.379 30.1618Z" fill="black"/>
<path d="M166.61 42.24L158.167 31.8371V42.24H152.182V10.16H158.167V29.4079L166.146 19.3257H173.289L163.966 30.6456L173.569 42.2405L166.61 42.24Z" fill="black"/>
<path fill-rule="evenodd" clip-rule="evenodd" d="M193.363 34.6815C192.362 36.0318 190.542 37.0102 188.267 37.0102C185.172 37.0102 182.669 35.7062 181.851 32.6311H199.005C199.153 31.8168 199.229 30.9906 199.233 30.1624C199.233 23.3151 194.455 17.8654 187.72 17.8654C180.577 17.8654 175.708 23.2215 175.708 30.1624C175.708 37.1034 180.531 42.4603 188.175 42.4603C192.544 42.4603 195.955 40.644 198.095 37.4761L193.363 34.6815ZM187.721 23.2687C190.179 23.2687 192.636 24.6195 193.363 27.9733H181.761C182.443 24.9918 184.582 23.2687 187.721 23.2687Z" fill="black"/>
<path d="M212.27 24.5723V34.2423C212.27 36.7523 214.045 36.799 217.412 36.613V42.0521C209.176 42.9817 206.4 40.518 206.4 34.2423V24.5723H202.441V18.8084H206.4V14.1133L212.27 12.3003V18.8084H217.412V24.5723H212.27Z" fill="black"/>
<path fill-rule="evenodd" clip-rule="evenodd" d="M236.107 31.6997C242.46 31.6997 247.354 26.9334 247.354 20.9298C247.354 14.9272 242.46 10.16 236.106 10.16H223.828V42.2405H230.32V31.6997H236.107ZM236.107 16.0706C238.884 16.0706 240.908 18.1343 240.908 20.9298C240.908 23.6798 238.883 25.7866 236.106 25.7866H230.32V16.0706H236.107Z" fill="black"/>
<path d="M252.701 8.01965H259.117V42.2388H252.701V8.01965Z" fill="black"/>
<path fill-rule="evenodd" clip-rule="evenodd" d="M290.128 41.8088V18.5173H284.196V21.2661C282.541 19.1697 280.059 17.8654 276.703 17.8654C270.591 17.8654 265.533 23.2211 265.533 30.1622C265.533 37.1033 270.589 42.4603 276.702 42.4603C280.057 42.4603 282.542 41.156 284.195 39.06V41.8088H290.128ZM277.805 23.5944C281.482 23.5944 284.195 26.25 284.195 30.1627C284.195 34.0762 281.484 36.7309 277.805 36.7309C274.175 36.7309 271.463 34.0754 271.463 30.1627C271.463 26.25 274.174 23.5944 277.805 23.5944Z" fill="black"/>
<path d="M319 28.1954V42.2472H313.092V28.9275C313.092 25.815 311.214 24.2136 308.559 24.2136C305.673 24.2136 303.52 25.9066 303.52 29.8883V42.2459H297.613V19.3621H303.52V21.9248C304.894 19.8655 307.276 18.7216 310.344 18.7216C315.199 18.7216 319 22.1079 319 28.1954Z" fill="black"/>
<path fill-rule="evenodd" clip-rule="evenodd" d="M51.2597 31.9655C52.0742 28.0975 51.963 24.0917 50.9353 20.2748C49.9077 16.4578 47.9926 12.9378 45.3461 10.0015C42.6997 7.06529 39.3969 4.79597 35.7069 3.37857C32.0169 1.96117 28.0442 1.43581 24.1126 1.84531C19.7873 2.28476 15.6557 3.86242 12.1383 6.41768C9.19064 8.53731 6.73881 11.2722 4.95257 14.4331C3.16634 17.594 2.08838 21.1053 1.79333 24.7239C1.49827 28.3426 1.99317 31.9821 3.24376 35.3906C4.49434 38.7991 6.47074 41.8951 9.03613 44.4642C11.6015 47.0334 14.6946 49.0143 18.1012 50.2699C21.5079 51.5255 25.1467 52.0257 28.7658 51.736C32.3849 51.4462 35.8978 50.3734 39.0613 48.5918C42.2247 46.8102 44.9632 44.3624 47.0872 41.4178C49.153 38.6103 50.5774 35.3837 51.2597 31.9655ZM28.2954 22.9643L29.3206 21.9391C31.5408 19.845 34.1077 18.1522 36.907 16.9362C35.5349 19.6531 33.7076 22.115 31.5042 24.215L30.4791 25.2402L28.2954 22.9643ZM26.245 49.7526C25.1269 49.717 24.0131 49.597 22.9131 49.3938C14.7116 46.9846 14.9166 40.0235 20.8627 34.5592L21.8879 35.5844L21.6931 43.6835L26.5936 38.9573L26.7371 33.1445L31.8631 28.2543C35.8783 24.4374 39.0252 19.8011 41.0898 14.6602L42.2175 11.8307L39.306 12.8559C34.1021 14.6564 29.3444 17.5508 25.3531 21.3445L20.2271 26.2654L14.3528 26.1322L9.39082 30.8583L17.4898 31.0531L18.515 32.0783C13.4813 37.5221 6.05894 37.9936 4.07006 29.7818C4.01758 29.566 3.9799 29.3467 3.95729 29.1257C3.49892 25.1049 4.12634 21.0348 5.77426 17.3387C7.42217 13.6426 10.0304 10.4556 13.3276 8.10925C16.5192 5.78052 20.2666 4.33105 24.1946 3.90595C27.6723 3.51028 31.1943 3.91622 34.4908 5.09263C37.7873 6.26905 40.7706 8.18471 43.212 10.6927L43.4067 10.8978C45.4965 13.0766 47.1333 15.6482 48.2226 18.4637C49.3119 21.2793 49.832 24.283 49.7527 27.3009C49.6796 30.3231 49.0115 33.3014 47.7866 36.0653C46.5617 38.8292 44.8041 41.3245 42.6142 43.4087C40.4244 45.4929 37.8451 47.1251 35.0241 48.2118C32.203 49.2986 29.1954 49.8187 26.1732 49.7424L26.245 49.7526Z" fill="black"/>
</svg>
