<svg width="40" height="40" viewBox="0 0 40 40" fill="none" xmlns="http://www.w3.org/2000/svg">
<path fill-rule="evenodd" clip-rule="evenodd" d="M20 40C31.0457 40 40 31.0457 40 20C40 8.95431 31.0457 0 20 0C8.95431 0 0 8.95431 0 20C0 31.0457 8.95431 40 20 40Z" fill="#F4E5FF"/>
<path d="M23.2613 9.94264C23.2613 9.83975 23.2204 9.74107 23.1477 9.66832C23.0749 9.59557 22.9762 9.55469 22.8733 9.55469H21.3215C21.2187 9.55469 21.12 9.59557 21.0472 9.66832C20.9745 9.74107 20.9336 9.83975 20.9336 9.94264V12.2703C20.9336 12.3732 20.9745 12.4719 21.0472 12.5447C21.12 12.6174 21.2187 12.6583 21.3215 12.6583H22.8733C22.9762 12.6583 23.0749 12.6174 23.1477 12.5447C23.2204 12.4719 23.2613 12.3732 23.2613 12.2703V9.94264ZM22.4854 11.8824H21.7095V10.3306H22.4854V11.8824Z" fill="#5B476B"/>
<path d="M26.3629 9.94264C26.3629 9.83975 26.322 9.74107 26.2492 9.66832C26.1765 9.59557 26.0778 9.55469 25.9749 9.55469H24.4231C24.3202 9.55469 24.2215 9.59557 24.1488 9.66832C24.076 9.74107 24.0352 9.83975 24.0352 9.94264V12.2703C24.0352 12.3732 24.076 12.4719 24.1488 12.5447C24.2215 12.6174 24.3202 12.6583 24.4231 12.6583H25.9749C26.0778 12.6583 26.1765 12.6174 26.2492 12.5447C26.322 12.4719 26.3629 12.3732 26.3629 12.2703V9.94264ZM25.587 11.8824H24.8111V10.3306H25.587V11.8824Z" fill="#5B476B"/>
<path d="M23.2613 13.8176C23.2613 13.7147 23.2204 13.6161 23.1477 13.5433C23.0749 13.4706 22.9762 13.4297 22.8733 13.4297H21.3215C21.2187 13.4297 21.12 13.4706 21.0472 13.5433C20.9745 13.6161 20.9336 13.7147 20.9336 13.8176V16.1453C20.9336 16.2482 20.9745 16.3469 21.0472 16.4197C21.12 16.4924 21.2187 16.5333 21.3215 16.5333H22.8733C22.9762 16.5333 23.0749 16.4924 23.1477 16.4197C23.2204 16.3469 23.2613 16.2482 23.2613 16.1453V13.8176ZM22.4854 15.7574H21.7095V14.2056H22.4854V15.7574Z" fill="#5B476B"/>
<path d="M26.3629 13.8176C26.3629 13.7147 26.322 13.6161 26.2492 13.5433C26.1765 13.4706 26.0778 13.4297 25.9749 13.4297H24.4231C24.3202 13.4297 24.2215 13.4706 24.1488 13.5433C24.076 13.6161 24.0352 13.7147 24.0352 13.8176V16.1453C24.0352 16.2482 24.076 16.3469 24.1488 16.4197C24.2215 16.4924 24.3202 16.5333 24.4231 16.5333H25.9749C26.0778 16.5333 26.1765 16.4924 26.2492 16.4197C26.322 16.3469 26.3629 16.2482 26.3629 16.1453V13.8176ZM25.587 15.7574H24.8111V14.2056H25.587V15.7574Z" fill="#5B476B"/>
<path d="M20.1558 9.94264C20.1558 9.83975 20.1149 9.74107 20.0422 9.66832C19.9694 9.59557 19.8708 9.55469 19.7679 9.55469H18.2161C18.1132 9.55469 18.0145 9.59557 17.9418 9.66832C17.869 9.74107 17.8281 9.83975 17.8281 9.94264V12.2703C17.8281 12.3732 17.869 12.4719 17.9418 12.5447C18.0145 12.6174 18.1132 12.6583 18.2161 12.6583H19.7679C19.8708 12.6583 19.9694 12.6174 20.0422 12.5447C20.1149 12.4719 20.1558 12.3732 20.1558 12.2703V9.94264ZM19.3799 11.8824H18.604V10.3306H19.3799V11.8824Z" fill="#5B476B"/>
<path d="M20.1558 13.8176C20.1558 13.7147 20.1149 13.6161 20.0422 13.5433C19.9694 13.4706 19.8708 13.4297 19.7679 13.4297H18.2161C18.1132 13.4297 18.0145 13.4706 17.9418 13.5433C17.869 13.6161 17.8281 13.7147 17.8281 13.8176V16.1453C17.8281 16.2482 17.869 16.3469 17.9418 16.4197C18.0145 16.4924 18.1132 16.5333 18.2161 16.5333H19.7679C19.8708 16.5333 19.9694 16.4924 20.0422 16.4197C20.1149 16.3469 20.1558 16.2482 20.1558 16.1453V13.8176ZM19.3799 15.7574H18.604V14.2056H19.3799V15.7574Z" fill="#5B476B"/>
<path d="M17.0465 9.94264C17.0464 9.83975 17.0056 9.74107 16.9328 9.66832C16.8601 9.59557 16.7614 9.55469 16.6585 9.55469H15.1067C15.0038 9.55469 14.9051 9.59557 14.8324 9.66832C14.7596 9.74107 14.7188 9.83975 14.7188 9.94264V12.2703C14.7188 12.3732 14.7596 12.4719 14.8324 12.5447C14.9051 12.6174 15.0038 12.6583 15.1067 12.6583H16.6585C16.7614 12.6583 16.8601 12.6174 16.9328 12.5447C17.0056 12.4719 17.0464 12.3732 17.0465 12.2703V9.94264ZM16.2706 11.8824H15.4947V10.3306H16.2706V11.8824Z" fill="#5B476B"/>
<path d="M17.0465 13.8176C17.0464 13.7147 17.0056 13.6161 16.9328 13.5433C16.8601 13.4706 16.7614 13.4297 16.6585 13.4297H15.1067C15.0038 13.4297 14.9051 13.4706 14.8324 13.5433C14.7596 13.6161 14.7188 13.7147 14.7188 13.8176V16.1453C14.7188 16.2482 14.7596 16.3469 14.8324 16.4197C14.9051 16.4924 15.0038 16.5333 15.1067 16.5333H16.6585C16.7614 16.5333 16.8601 16.4924 16.9328 16.4197C17.0056 16.3469 17.0464 16.2482 17.0465 16.1453V13.8176ZM16.2706 15.7574H15.4947V14.2056H16.2706V15.7574Z" fill="#5B476B"/>
<path d="M22.8733 17.3086H21.3215C21.2187 17.3086 21.12 17.3495 21.0472 17.4222C20.9745 17.495 20.9336 17.5937 20.9336 17.6965V20.0242C20.9336 20.1271 20.9745 20.2258 21.0472 20.2986C21.12 20.3713 21.2187 20.4122 21.3215 20.4122H22.8733C22.9762 20.4122 23.0749 20.3713 23.1477 20.2986C23.2204 20.2258 23.2613 20.1271 23.2613 20.0242V17.6965C23.2613 17.5937 23.2204 17.495 23.1477 17.4222C23.0749 17.3495 22.9762 17.3086 22.8733 17.3086ZM22.4854 19.6363H21.7095V18.0845H22.4854V19.6363Z" fill="#5B476B"/>
<path d="M25.9749 17.3086H24.4231C24.3202 17.3086 24.2215 17.3495 24.1488 17.4222C24.076 17.495 24.0352 17.5937 24.0352 17.6965V20.0242C24.0352 20.1271 24.076 20.2258 24.1488 20.2986C24.2215 20.3713 24.3202 20.4122 24.4231 20.4122H25.9749C26.0778 20.4122 26.1765 20.3713 26.2492 20.2986C26.322 20.2258 26.3629 20.1271 26.3629 20.0242V17.6965C26.3629 17.5937 26.322 17.495 26.2492 17.4222C26.1765 17.3495 26.0778 17.3086 25.9749 17.3086ZM25.587 19.6363H24.8111V18.0845H25.587V19.6363Z" fill="#5B476B"/>
<path d="M19.7679 17.3086H18.2161C18.1132 17.3086 18.0145 17.3495 17.9418 17.4222C17.869 17.495 17.8281 17.5937 17.8281 17.6965V20.0242C17.8281 20.1271 17.869 20.2258 17.9418 20.2986C18.0145 20.3713 18.1132 20.4122 18.2161 20.4122H19.7679C19.8708 20.4122 19.9694 20.3713 20.0422 20.2986C20.1149 20.2258 20.1558 20.1271 20.1558 20.0242V17.6965C20.1558 17.5937 20.1149 17.495 20.0422 17.4222C19.9694 17.3495 19.8708 17.3086 19.7679 17.3086ZM19.3799 19.6363H18.604V18.0845H19.3799V19.6363Z" fill="#5B476B"/>
<path d="M16.6585 17.3086H15.1067C15.0038 17.3086 14.9051 17.3495 14.8324 17.4222C14.7596 17.495 14.7188 17.5937 14.7188 17.6965V20.0242C14.7188 20.1271 14.7596 20.2258 14.8324 20.2986C14.9051 20.3713 15.0038 20.4122 15.1067 20.4122H16.6585C16.7614 20.4122 16.8601 20.3713 16.9328 20.2986C17.0056 20.2258 17.0464 20.1271 17.0465 20.0242V17.6965C17.0464 17.5937 17.0056 17.495 16.9328 17.4222C16.8601 17.3495 16.7614 17.3086 16.6585 17.3086ZM16.2706 19.6363H15.4947V18.0845H16.2706V19.6363Z" fill="#5B476B"/>
<path d="M27.9101 21.0933V9.16385C27.9097 8.85529 27.787 8.55946 27.5688 8.34127C27.3506 8.12308 27.0548 8.00035 26.7462 8H14.3318C14.0233 8.00035 13.7274 8.12308 13.5092 8.34127C13.291 8.55946 13.1683 8.85529 13.168 9.16385V21.2873H13.9439V9.16385C13.9439 9.06096 13.9847 8.96228 14.0575 8.88953C14.1303 8.81677 14.2289 8.7759 14.3318 8.7759H26.7462C26.8491 8.7759 26.9478 8.81677 27.0205 8.88953C27.0933 8.96228 27.1342 9.06096 27.1342 9.16385V21.0933H27.9101Z" fill="#5B476B"/>
<path d="M31.4045 21.8711H25.9732C25.7675 21.8713 25.5702 21.9531 25.4248 22.0986C25.2793 22.244 25.1975 22.4413 25.1973 22.647V23.4229H17.2443V22.841C17.2441 22.6353 17.1623 22.438 17.0168 22.2926C16.8713 22.1471 16.6741 22.0653 16.4684 22.0651H8.12746C7.92174 22.0653 7.72451 22.1471 7.57905 22.2926C7.43358 22.438 7.35177 22.6353 7.35156 22.841V32.1518C7.35177 32.3575 7.43358 32.5547 7.57905 32.7002C7.72451 32.8457 7.92174 32.9275 8.12746 32.9277H31.4045C31.6102 32.9275 31.8074 32.8457 31.9529 32.7002C32.0984 32.5547 32.1802 32.3575 32.1804 32.1518V22.647C32.1802 22.4413 32.0984 22.244 31.9529 22.0986C31.8074 21.9531 31.6102 21.8713 31.4045 21.8711ZM25.9732 22.647H31.4045V30.406H25.9732V22.647ZM17.2443 24.1988H25.1973V24.9747H17.2443V24.1988ZM17.2443 25.7506H25.1973V30.406H23.0635V28.4662C23.0631 28.0548 22.8994 27.6604 22.6085 27.3695C22.3176 27.0786 21.9232 26.9149 21.5117 26.9144H20.7358C20.3244 26.9149 19.93 27.0786 19.6391 27.3695C19.3482 27.6604 19.1845 28.0548 19.184 28.4662V30.406H17.2443V25.7506ZM22.2876 28.4662V30.406H19.9599V28.4662C19.9602 28.2605 20.042 28.0633 20.1874 27.9178C20.3329 27.7724 20.5301 27.6906 20.7358 27.6903H21.5117C21.7175 27.6906 21.9147 27.7724 22.0602 27.9178C22.2056 28.0633 22.2874 28.2605 22.2876 28.4662ZM8.12746 22.841H16.4684V30.406H8.12746V22.841ZM8.12746 32.1518V31.1819H31.4047L31.4051 32.1518H8.12746Z" fill="#5B476B"/>
<path d="M9.58449 24.0039H9.19654C9.09365 24.0039 8.99498 24.0448 8.92222 24.1175C8.84947 24.1903 8.80859 24.289 8.80859 24.3919C8.80859 24.4947 8.84947 24.5934 8.92222 24.6662C8.99498 24.7389 9.09365 24.7798 9.19654 24.7798H9.58449C9.68738 24.7798 9.78606 24.7389 9.85882 24.6662C9.93157 24.5934 9.97244 24.4947 9.97244 24.3919C9.97244 24.289 9.93157 24.1903 9.85882 24.1175C9.78606 24.0448 9.68738 24.0039 9.58449 24.0039Z" fill="#5B476B"/>
<path d="M9.58449 25.5508H9.19654C9.09365 25.5508 8.99498 25.5917 8.92222 25.6644C8.84947 25.7372 8.80859 25.8358 8.80859 25.9387C8.80859 26.0416 8.84947 26.1403 8.92222 26.2131C8.99498 26.2858 9.09365 26.3267 9.19654 26.3267H9.58449C9.68738 26.3267 9.78606 26.2858 9.85882 26.2131C9.93157 26.1403 9.97244 26.0416 9.97244 25.9387C9.97244 25.8358 9.93157 25.7372 9.85882 25.6644C9.78606 25.5917 9.68738 25.5508 9.58449 25.5508Z" fill="#5B476B"/>
<path d="M9.58449 27.1055H9.19654C9.09365 27.1055 8.99498 27.1463 8.92222 27.2191C8.84947 27.2919 8.80859 27.3905 8.80859 27.4934C8.80859 27.5963 8.84947 27.695 8.92222 27.7677C8.99498 27.8405 9.09365 27.8814 9.19654 27.8814H9.58449C9.68738 27.8814 9.78606 27.8405 9.85882 27.7677C9.93157 27.695 9.97244 27.5963 9.97244 27.4934C9.97244 27.3905 9.93157 27.2919 9.85882 27.2191C9.78606 27.1463 9.68738 27.1055 9.58449 27.1055Z" fill="#5B476B"/>
<path d="M9.58449 28.6562H9.19654C9.09365 28.6562 8.99498 28.6971 8.92222 28.7699C8.84947 28.8426 8.80859 28.9413 8.80859 29.0442C8.80859 29.1471 8.84947 29.2458 8.92222 29.3185C8.99498 29.3913 9.09365 29.4321 9.19654 29.4321H9.58449C9.68738 29.4321 9.78606 29.3913 9.85882 29.3185C9.93157 29.2458 9.97244 29.1471 9.97244 29.0442C9.97244 28.9413 9.93157 28.8426 9.85882 28.7699C9.78606 28.6971 9.68738 28.6562 9.58449 28.6562Z" fill="#5B476B"/>
<path d="M11.522 24.0039H11.134C11.0312 24.0039 10.9325 24.0448 10.8597 24.1175C10.787 24.1903 10.7461 24.289 10.7461 24.3919C10.7461 24.4947 10.787 24.5934 10.8597 24.6662C10.9325 24.7389 11.0312 24.7798 11.134 24.7798H11.522C11.6249 24.7798 11.7236 24.7389 11.7963 24.6662C11.8691 24.5934 11.9099 24.4947 11.9099 24.3919C11.9099 24.289 11.8691 24.1903 11.7963 24.1175C11.7236 24.0448 11.6249 24.0039 11.522 24.0039Z" fill="#5B476B"/>
<path d="M11.522 25.5508H11.134C11.0312 25.5508 10.9325 25.5917 10.8597 25.6644C10.787 25.7372 10.7461 25.8358 10.7461 25.9387C10.7461 26.0416 10.787 26.1403 10.8597 26.2131C10.9325 26.2858 11.0312 26.3267 11.134 26.3267H11.522C11.6249 26.3267 11.7236 26.2858 11.7963 26.2131C11.8691 26.1403 11.9099 26.0416 11.9099 25.9387C11.9099 25.8358 11.8691 25.7372 11.7963 25.6644C11.7236 25.5917 11.6249 25.5508 11.522 25.5508Z" fill="#5B476B"/>
<path d="M11.522 27.1055H11.134C11.0312 27.1055 10.9325 27.1463 10.8597 27.2191C10.787 27.2919 10.7461 27.3905 10.7461 27.4934C10.7461 27.5963 10.787 27.695 10.8597 27.7677C10.9325 27.8405 11.0312 27.8814 11.134 27.8814H11.522C11.6249 27.8814 11.7236 27.8405 11.7963 27.7677C11.8691 27.695 11.9099 27.5963 11.9099 27.4934C11.9099 27.3905 11.8691 27.2919 11.7963 27.2191C11.7236 27.1463 11.6249 27.1055 11.522 27.1055Z" fill="#5B476B"/>
<path d="M11.522 28.6562H11.134C11.0312 28.6562 10.9325 28.6971 10.8597 28.7699C10.787 28.8426 10.7461 28.9413 10.7461 29.0442C10.7461 29.1471 10.787 29.2458 10.8597 29.3185C10.9325 29.3913 11.0312 29.4321 11.134 29.4321H11.522C11.6249 29.4321 11.7236 29.3913 11.7963 29.3185C11.8691 29.2458 11.9099 29.1471 11.9099 29.0442C11.9099 28.9413 11.8691 28.8426 11.7963 28.7699C11.7236 28.6971 11.6249 28.6562 11.522 28.6562Z" fill="#5B476B"/>
<path d="M13.4595 24.0039H13.0715C12.9687 24.0039 12.87 24.0448 12.7972 24.1175C12.7245 24.1903 12.6836 24.289 12.6836 24.3919C12.6836 24.4947 12.7245 24.5934 12.7972 24.6662C12.87 24.7389 12.9687 24.7798 13.0715 24.7798H13.4595C13.5624 24.7798 13.6611 24.7389 13.7338 24.6662C13.8066 24.5934 13.8474 24.4947 13.8474 24.3919C13.8474 24.289 13.8066 24.1903 13.7338 24.1175C13.6611 24.0448 13.5624 24.0039 13.4595 24.0039Z" fill="#5B476B"/>
<path d="M13.4595 25.5508H13.0715C12.9687 25.5508 12.87 25.5917 12.7972 25.6644C12.7245 25.7372 12.6836 25.8358 12.6836 25.9387C12.6836 26.0416 12.7245 26.1403 12.7972 26.2131C12.87 26.2858 12.9687 26.3267 13.0715 26.3267H13.4595C13.5624 26.3267 13.6611 26.2858 13.7338 26.2131C13.8066 26.1403 13.8474 26.0416 13.8474 25.9387C13.8474 25.8358 13.8066 25.7372 13.7338 25.6644C13.6611 25.5917 13.5624 25.5508 13.4595 25.5508Z" fill="#5B476B"/>
<path d="M13.4595 27.1055H13.0715C12.9687 27.1055 12.87 27.1463 12.7972 27.2191C12.7245 27.2919 12.6836 27.3905 12.6836 27.4934C12.6836 27.5963 12.7245 27.695 12.7972 27.7677C12.87 27.8405 12.9687 27.8814 13.0715 27.8814H13.4595C13.5624 27.8814 13.6611 27.8405 13.7338 27.7677C13.8066 27.695 13.8474 27.5963 13.8474 27.4934C13.8474 27.3905 13.8066 27.2919 13.7338 27.2191C13.6611 27.1463 13.5624 27.1055 13.4595 27.1055Z" fill="#5B476B"/>
<path d="M13.4595 28.6562H13.0715C12.9687 28.6562 12.87 28.6971 12.7972 28.7699C12.7245 28.8426 12.6836 28.9413 12.6836 29.0442C12.6836 29.1471 12.7245 29.2458 12.7972 29.3185C12.87 29.3913 12.9687 29.4321 13.0715 29.4321H13.4595C13.5624 29.4321 13.6611 29.3913 13.7338 29.3185C13.8066 29.2458 13.8474 29.1471 13.8474 29.0442C13.8474 28.9413 13.8066 28.8426 13.7338 28.7699C13.6611 28.6971 13.5624 28.6562 13.4595 28.6562Z" fill="#5B476B"/>
<path d="M30.268 24.314L27.3584 23.3441C27.3101 23.328 27.259 23.3216 27.2082 23.3252C27.1574 23.3288 27.1078 23.3424 27.0622 23.3652C26.9701 23.4112 26.9001 23.4918 26.8676 23.5895C26.8515 23.6378 26.845 23.6888 26.8486 23.7397C26.8522 23.7905 26.8658 23.8401 26.8886 23.8857C26.9114 23.9312 26.9429 23.9719 26.9814 24.0053C27.0199 24.0387 27.0646 24.0641 27.1129 24.0803L30.0225 25.0501C30.0709 25.0663 30.1219 25.0727 30.1727 25.0691C30.2235 25.0655 30.2732 25.0519 30.3187 25.0291C30.3643 25.0064 30.405 24.9748 30.4383 24.9363C30.4717 24.8979 30.4972 24.8532 30.5133 24.8048C30.5295 24.7565 30.5359 24.7055 30.5323 24.6546C30.5287 24.6038 30.5151 24.5542 30.4923 24.5086C30.4696 24.463 30.438 24.4224 30.3995 24.389C30.361 24.3556 30.3164 24.3301 30.268 24.314H30.268Z" fill="#5B476B"/>
<path d="M30.268 25.8609L27.3584 24.891C27.2608 24.8585 27.1542 24.866 27.0622 24.912C26.9701 24.958 26.9001 25.0387 26.8676 25.1363C26.835 25.2339 26.8426 25.3405 26.8886 25.4325C26.9346 25.5246 27.0153 25.5946 27.1129 25.6271L30.0225 26.597C30.1201 26.6296 30.2267 26.622 30.3187 26.576C30.4108 26.53 30.4808 26.4493 30.5133 26.3517C30.5459 26.2541 30.5383 26.1475 30.4923 26.0555C30.4463 25.9635 30.3656 25.8935 30.268 25.8609H30.268Z" fill="#5B476B"/>
<path d="M30.268 27.4156L27.3584 26.4457C27.2608 26.4132 27.1542 26.4207 27.0622 26.4667C26.9701 26.5127 26.9001 26.5934 26.8676 26.691C26.835 26.7886 26.8426 26.8952 26.8886 26.9872C26.9346 27.0793 27.0153 27.1493 27.1129 27.1818L30.0225 28.1517C30.0709 28.1678 30.1219 28.1743 30.1727 28.1707C30.2235 28.1671 30.2732 28.1535 30.3187 28.1307C30.3643 28.1079 30.405 28.0764 30.4383 28.0379C30.4717 27.9994 30.4972 27.9547 30.5133 27.9064C30.5295 27.8581 30.5359 27.807 30.5323 27.7562C30.5287 27.7054 30.5151 27.6558 30.4923 27.6102C30.4696 27.5646 30.438 27.524 30.3995 27.4906C30.361 27.4572 30.3164 27.4317 30.268 27.4156H30.268Z" fill="#5B476B"/>
<path d="M30.268 28.9703L27.3584 28.0004C27.2608 27.9678 27.1542 27.9754 27.0622 28.0214C26.9701 28.0674 26.9001 28.1481 26.8676 28.2457C26.835 28.3433 26.8426 28.4499 26.8886 28.5419C26.9346 28.634 27.0153 28.704 27.1129 28.7365L30.0225 29.7064C30.0709 29.7225 30.1219 29.729 30.1727 29.7254C30.2235 29.7217 30.2732 29.7082 30.3187 29.6854C30.3643 29.6626 30.405 29.6311 30.4383 29.5926C30.4717 29.5541 30.4972 29.5094 30.5133 29.4611C30.5295 29.4127 30.5359 29.3617 30.5323 29.3109C30.5287 29.2601 30.5151 29.2104 30.4923 29.1649C30.4695 29.1193 30.438 29.0787 30.3995 29.0453C30.361 29.0119 30.3164 28.9864 30.268 28.9703H30.268Z" fill="#5B476B"/>
<path d="M15.397 24.0039H15.009C14.9062 24.0039 14.8075 24.0448 14.7347 24.1175C14.662 24.1903 14.6211 24.289 14.6211 24.3919C14.6211 24.4947 14.662 24.5934 14.7347 24.6662C14.8075 24.7389 14.9062 24.7798 15.009 24.7798H15.397C15.4999 24.7798 15.5986 24.7389 15.6713 24.6662C15.7441 24.5934 15.7849 24.4947 15.7849 24.3919C15.7849 24.289 15.7441 24.1903 15.6713 24.1175C15.5986 24.0448 15.4999 24.0039 15.397 24.0039Z" fill="#5B476B"/>
<path d="M15.397 25.5508H15.009C14.9062 25.5508 14.8075 25.5917 14.7347 25.6644C14.662 25.7372 14.6211 25.8358 14.6211 25.9387C14.6211 26.0416 14.662 26.1403 14.7347 26.2131C14.8075 26.2858 14.9062 26.3267 15.009 26.3267H15.397C15.4999 26.3267 15.5986 26.2858 15.6713 26.2131C15.7441 26.1403 15.7849 26.0416 15.7849 25.9387C15.7849 25.8358 15.7441 25.7372 15.6713 25.6644C15.5986 25.5917 15.4999 25.5508 15.397 25.5508Z" fill="#5B476B"/>
<path d="M15.397 27.1055H15.009C14.9062 27.1055 14.8075 27.1463 14.7347 27.2191C14.662 27.2919 14.6211 27.3905 14.6211 27.4934C14.6211 27.5963 14.662 27.695 14.7347 27.7677C14.8075 27.8405 14.9062 27.8814 15.009 27.8814H15.397C15.4999 27.8814 15.5986 27.8405 15.6713 27.7677C15.7441 27.695 15.7849 27.5963 15.7849 27.4934C15.7849 27.3905 15.7441 27.2919 15.6713 27.2191C15.5986 27.1463 15.4999 27.1055 15.397 27.1055Z" fill="#5B476B"/>
<path d="M15.397 28.6562H15.009C14.9062 28.6562 14.8075 28.6971 14.7347 28.7699C14.662 28.8426 14.6211 28.9413 14.6211 29.0442C14.6211 29.1471 14.662 29.2458 14.7347 29.3185C14.8075 29.3913 14.9062 29.4321 15.009 29.4321H15.397C15.4999 29.4321 15.5986 29.3913 15.6713 29.3185C15.7441 29.2458 15.7849 29.1471 15.7849 29.0442C15.7849 28.9413 15.7441 28.8426 15.6713 28.7699C15.5986 28.6971 15.4999 28.6562 15.397 28.6562Z" fill="#5B476B"/>
</svg>
